<svg width="200" height="200" viewBox="0 0 200 200" fill="none" xmlns="http://www.w3.org/2000/svg">
  <!-- ベースとなる本 -->
  <rect x="40" y="50" width="120" height="120" rx="5" fill="#5B7FE6" />
  
  <!-- 本の表紙の立体感 -->
  <rect x="40" y="50" width="10" height="120" rx="2" fill="#4A6AC0" />
  
  <!-- 本のページ -->
  <rect x="50" y="60" width="100" height="100" rx="2" fill="#E0E0E0" />
  <rect x="60" y="70" width="80" height="5" rx="2" fill="#BDBDBD" />
  <rect x="60" y="85" width="80" height="5" rx="2" fill="#BDBDBD" />
  <rect x="60" y="100" width="80" height="5" rx="2" fill="#BDBDBD" />
  <rect x="60" y="115" width="80" height="5" rx="2" fill="#BDBDBD" />
  <rect x="60" y="130" width="50" height="5" rx="2" fill="#BDBDBD" />
  
  <!-- クリップ部分 -->
  <path d="M130 30C130 25 135 20 140 20C145 20 150 25 150 30V70C150 75 145 80 140 80C135 80 130 75 130 70V30Z" fill="#9E9E9E" />
  <path d="M135 30C135 27.5 137.5 25 140 25C142.5 25 145 27.5 145 30V70C145 72.5 142.5 75 140 75C137.5 75 135 72.5 135 70V30Z" fill="#BDBDBD" />
  
  <!-- カメラアイコン（撮影機能を表現） -->
  <circle cx="100" cy="160" r="15" fill="#757575" />
  <rect x="90" y="155" width="20" height="10" rx="2" fill="#616161" />
  <circle cx="100" cy="160" r="5" fill="#9E9E9E" />
</svg> 