<svg width="200" height="200" viewBox="0 0 200 200" fill="none" xmlns="http://www.w3.org/2000/svg">
  <rect width="200" height="200" rx="20" fill="#F5F7F9"/>
  <rect x="40" y="70" width="120" height="60" rx="5" fill="#4169E1" fill-opacity="0.1"/>
  <rect x="50" y="80" width="5" height="40" fill="#4169E1"/>
  <rect x="60" y="80" width="2" height="40" fill="#4169E1"/>
  <rect x="65" y="80" width="4" height="40" fill="#4169E1"/>
  <rect x="72" y="80" width="6" height="40" fill="#4169E1"/>
  <rect x="82" y="80" width="3" height="40" fill="#4169E1"/>
  <rect x="90" y="80" width="5" height="40" fill="#4169E1"/>
  <rect x="100" y="80" width="2" height="40" fill="#4169E1"/>
  <rect x="105" y="80" width="6" height="40" fill="#4169E1"/>
  <rect x="115" y="80" width="3" height="40" fill="#4169E1"/>
  <rect x="122" y="80" width="4" height="40" fill="#4169E1"/>
  <rect x="130" y="80" width="2" height="40" fill="#4169E1"/>
  <rect x="135" y="80" width="5" height="40" fill="#4169E1"/>
  <rect x="145" y="80" width="3" height="40" fill="#4169E1"/>
  <circle cx="100" cy="140" r="15" fill="#4169E1" fill-opacity="0.2"/>
  <path d="M100 135V145M95 140H105" stroke="#4169E1" stroke-width="2" stroke-linecap="round"/>
  <text x="100" y="170" text-anchor="middle" font-family="Arial" font-size="12" fill="#333333">バーコードをスキャン</text>
</svg> 